<svg width="56" height="56" viewBox="0 0 56 56" fill="none" xmlns="http://www.w3.org/2000/svg">
<rect x="55" y="55" width="54" height="54" rx="27" transform="rotate(-180 55 55)" stroke="#959EAD" stroke-width="2"/>
<path d="M29.0625 33.9062C29.375 33.5938 29.3438 33.125 29.0625 32.8125L25.2812 29.25H34.25C34.6875 29.25 35 28.9062 35 28.5V27.5C35 27.0625 34.6875 26.75 34.25 26.75H25.2812L29.0625 23.1562C29.3438 22.8438 29.3438 22.375 29.0625 22.0625L28.375 21.375C28.0625 21.0938 27.5938 21.0938 27.3125 21.375L21.2188 27.4688C20.9375 27.75 20.9375 28.2188 21.2188 28.5312L27.3125 34.5938C27.5938 34.875 28.0625 34.875 28.375 34.5938L29.0625 33.9062Z" fill="#959EAD"/>
</svg>
