<svg width="260" height="350" viewBox="0 0 260 350" fill="none" xmlns="http://www.w3.org/2000/svg">
<rect width="260" height="350" rx="8" fill="#1565D8"/>
<mask id="mask0" mask-type="alpha" maskUnits="userSpaceOnUse" x="0" y="0" width="260" height="350">
<rect width="260" height="350" rx="8" fill="white"/>
</mask>
<g mask="url(#mask0)">
<path d="M142 136H133V127C133 125.938 132.062 125 131 125H129C127.875 125 127 125.938 127 127V136H118C116.875 136 116 136.938 116 138V140C116 141.125 116.875 142 118 142H127V151C127 152.125 127.875 153 129 153H131C132.062 153 133 152.125 133 151V142H142C143.062 142 144 141.125 144 140V138C144 136.938 143.062 136 142 136Z" fill="white"/>
<path d="M86.1729 206.192C89.3649 206.192 91.9809 204.272 91.9809 201.128C91.9809 198.008 89.4369 196.976 87.2049 196.112C85.4529 195.44 83.8929 194.864 83.8929 193.496C83.8929 192.416 84.8049 191.696 86.0049 191.696C87.1089 191.696 88.1169 192.344 88.6929 193.496L91.1889 191.96C90.0609 189.92 88.1649 189.032 86.1009 189.032C83.2929 189.032 80.8929 190.688 80.8929 193.64C80.8929 196.688 83.4129 197.672 85.6449 198.536C87.3969 199.232 88.9809 199.856 88.9809 201.392C88.9809 202.592 88.0209 203.528 86.2209 203.528C84.4449 203.528 82.9809 202.616 82.7409 200.528L79.7649 201.272C80.2929 204.56 83.2209 206.192 86.1729 206.192ZM99.2306 206.24C101.223 206.24 102.783 205.544 104.079 204.104L102.087 202.352C101.271 203.288 100.311 203.624 99.2546 203.624C97.3826 203.624 96.4226 202.592 96.3026 201.032H104.415C104.463 200.648 104.487 200.288 104.487 199.928C104.487 196.64 102.711 193.928 99.0386 193.928C95.1026 193.928 93.4226 197.048 93.4226 200.144C93.4226 203.312 95.1506 206.24 99.2306 206.24ZM96.3266 198.992C96.2786 197.744 97.1426 196.328 99.0146 196.328C100.455 196.328 101.511 197.12 101.703 198.536C101.727 198.68 101.727 198.848 101.727 198.992H96.3266ZM111.876 206.24C113.868 206.24 115.428 205.544 116.724 204.104L114.732 202.352C113.916 203.288 112.956 203.624 111.9 203.624C110.028 203.624 109.068 202.592 108.948 201.032H117.06C117.108 200.648 117.132 200.288 117.132 199.928C117.132 196.64 115.356 193.928 111.684 193.928C107.748 193.928 106.068 197.048 106.068 200.144C106.068 203.312 107.796 206.24 111.876 206.24ZM108.972 198.992C108.924 197.744 109.788 196.328 111.66 196.328C113.1 196.328 114.156 197.12 114.348 198.536C114.372 198.68 114.372 198.848 114.372 198.992H108.972ZM139.077 189.272L134.757 201.056L130.461 189.272H126.165V206H129.165V193.496L133.317 204.536H136.221L140.373 193.496V206H143.373V189.272H139.077ZM152.157 206.24C155.805 206.24 158.085 203.408 158.085 200.072C158.085 196.712 155.805 193.928 152.157 193.928C148.485 193.928 146.229 196.712 146.229 200.072C146.229 203.408 148.485 206.24 152.157 206.24ZM152.157 203.72C149.973 203.72 149.109 201.992 149.109 200.072C149.109 198.128 149.973 196.448 152.157 196.448C154.341 196.448 155.205 198.128 155.205 200.072C155.205 201.992 154.341 203.72 152.157 203.72ZM160.586 206H163.466V200.048C163.466 197.816 164.33 196.736 166.082 196.736C166.658 196.736 167.114 196.88 167.522 197.144L168.914 194.6C168.146 194.12 167.45 193.928 166.658 193.928C165.338 193.928 163.994 194.72 163.49 196.16V194.168H160.586V206ZM174.798 206.24C176.79 206.24 178.35 205.544 179.646 204.104L177.654 202.352C176.838 203.288 175.878 203.624 174.822 203.624C172.95 203.624 171.99 202.592 171.87 201.032H179.982C180.03 200.648 180.054 200.288 180.054 199.928C180.054 196.64 178.278 193.928 174.606 193.928C170.67 193.928 168.99 197.048 168.99 200.144C168.99 203.312 170.718 206.24 174.798 206.24ZM171.894 198.992C171.846 197.744 172.71 196.328 174.582 196.328C176.022 196.328 177.078 197.12 177.27 198.536C177.294 198.68 177.294 198.848 177.294 198.992H171.894ZM83.4912 238.24C87.4272 238.24 89.8752 236.2 90.9552 233.368L88.1472 232.312C87.4752 234.16 85.9872 235.384 83.4912 235.384C79.8912 235.384 78.3792 232.816 78.3792 229.6C78.3792 226.384 79.8912 223.864 83.4912 223.864C85.9872 223.864 87.4752 225.088 88.1472 226.864L90.9072 225.784C89.8032 223 87.3792 221.008 83.4912 221.008C77.9232 221.008 75.3792 225.064 75.3792 229.624C75.3792 234.208 77.9712 238.24 83.4912 238.24ZM97.8364 238.24C101.484 238.24 103.764 235.408 103.764 232.072C103.764 228.712 101.484 225.928 97.8364 225.928C94.1644 225.928 91.9084 228.712 91.9084 232.072C91.9084 235.408 94.1644 238.24 97.8364 238.24ZM97.8364 235.72C95.6524 235.72 94.7884 233.992 94.7884 232.072C94.7884 230.128 95.6524 228.448 97.8364 228.448C100.02 228.448 100.884 230.128 100.884 232.072C100.884 233.992 100.02 235.72 97.8364 235.72ZM108.93 238.24C109.482 238.24 110.13 238.12 110.778 237.88V235.576C110.442 235.672 110.13 235.72 109.866 235.72C109.338 235.72 109.026 235.504 109.026 234.976V221.272H106.146V235.168C106.146 237.28 107.322 238.24 108.93 238.24ZM115.81 238.24C116.362 238.24 117.01 238.12 117.658 237.88V235.576C117.322 235.672 117.01 235.72 116.746 235.72C116.218 235.72 115.906 235.504 115.906 234.976V221.272H113.026V235.168C113.026 237.28 114.202 238.24 115.81 238.24ZM124.849 238.24C126.841 238.24 128.401 237.544 129.697 236.104L127.705 234.352C126.889 235.288 125.929 235.624 124.873 235.624C123.001 235.624 122.041 234.592 121.921 233.032H130.033C130.081 232.648 130.105 232.288 130.105 231.928C130.105 228.64 128.329 225.928 124.657 225.928C120.721 225.928 119.041 229.048 119.041 232.144C119.041 235.312 120.769 238.24 124.849 238.24ZM121.945 230.992C121.897 229.744 122.761 228.328 124.633 228.328C126.073 228.328 127.129 229.12 127.321 230.536C127.345 230.68 127.345 230.848 127.345 230.992H121.945ZM137.375 238.24C139.727 238.24 141.551 236.944 142.343 234.736L139.727 233.728C139.415 234.952 138.503 235.72 137.351 235.72C135.335 235.72 134.591 233.992 134.591 232.12C134.591 230.248 135.359 228.448 137.351 228.448C138.527 228.448 139.415 229.24 139.727 230.488L142.463 229.408C141.551 227.056 139.703 225.928 137.351 225.928C133.487 225.928 131.639 229 131.639 232.12C131.639 235.24 133.511 238.24 137.375 238.24ZM151.042 228.448V226.168H148.09V221.272L145.21 223.408V226.168H143.29V228.448H145.21V234.688C145.21 237.208 146.89 238.24 148.882 238.24C149.602 238.24 150.322 238.12 151.042 237.88V235.576C150.514 235.744 150.01 235.84 149.602 235.84C148.666 235.84 148.09 235.408 148.09 234.472V228.448H151.042ZM153.694 223.936H156.718V221.272H153.694V223.936ZM153.766 238H156.646V226.168H153.766V238ZM165.072 238.24C168.72 238.24 171 235.408 171 232.072C171 228.712 168.72 225.928 165.072 225.928C161.4 225.928 159.144 228.712 159.144 232.072C159.144 235.408 161.4 238.24 165.072 238.24ZM165.072 235.72C162.888 235.72 162.024 233.992 162.024 232.072C162.024 230.128 162.888 228.448 165.072 228.448C167.256 228.448 168.12 230.128 168.12 232.072C168.12 233.992 167.256 235.72 165.072 235.72ZM173.502 238H176.382V233.272C176.382 231.16 176.382 228.448 179.07 228.448C181.254 228.448 181.254 230.272 181.254 231.088V238H184.134V230.368C184.134 227.56 182.622 225.928 179.958 225.928C178.518 225.928 177.222 226.408 176.382 227.536V226.168H173.502V238Z" fill="white"/>
</g>
</svg>
