<svg width="551" height="338" viewBox="0 0 551 338" fill="none" xmlns="http://www.w3.org/2000/svg">
<g opacity="0.2" filter="url(#filter0_d)">
<path fill-rule="evenodd" clip-rule="evenodd" d="M597 1163C924.505 1163 1190 897.505 1190 570C1190 242.495 924.505 -23 597 -23C269.495 -23 4 242.495 4 570C4 897.505 269.495 1163 597 1163ZM597 963C379.952 963 204 787.048 204 570C204 352.952 379.952 177 597 177C814.048 177 990 352.952 990 570C990 787.048 814.048 963 597 963Z" fill="url(#paint0_linear)"/>
</g>
<defs>
<filter id="filter0_d" x="0" y="-23" width="1194" height="1194" filterUnits="userSpaceOnUse" color-interpolation-filters="sRGB">
<feFlood flood-opacity="0" result="BackgroundImageFix"/>
<feColorMatrix in="SourceAlpha" type="matrix" values="0 0 0 0 0 0 0 0 0 0 0 0 0 0 0 0 0 0 127 0"/>
<feOffset dy="4"/>
<feGaussianBlur stdDeviation="2"/>
<feColorMatrix type="matrix" values="0 0 0 0 0 0 0 0 0 0 0 0 0 0 0 0 0 0 0.25 0"/>
<feBlend mode="normal" in2="BackgroundImageFix" result="effect1_dropShadow"/>
<feBlend mode="normal" in="SourceGraphic" in2="effect1_dropShadow" result="shape"/>
</filter>
<linearGradient id="paint0_linear" x1="855.459" y1="145.851" x2="7.16157" y2="145.851" gradientUnits="userSpaceOnUse">
<stop stop-color="white"/>
<stop offset="1" stop-color="white" stop-opacity="0.01"/>
</linearGradient>
</defs>
</svg>
